<svg width="50" height="29" viewBox="0 0 50 29" fill="none" xmlns="http://www.w3.org/2000/svg">
<g clip-path="url(#clip0)">
<path fill-rule="evenodd" clip-rule="evenodd" d="M37.621 7.12001C29.6284 4.03467 20.7736 4.03467 12.781 7.12001C8.85864 5.56215 4.67231 4.77643 0.451996 4.80601V0.420013H49.952V4.80601C45.7307 4.77642 41.5434 5.56213 37.62 7.12001H37.621ZM0.450989 28.42V7.15701C3.61441 7.17714 6.75517 7.69272 9.759 8.68501C6.574 10.608 4.27301 13.267 4.27301 16.558C4.27301 22.821 10.479 24.432 12.826 24.432C15.173 24.432 21.382 22.821 21.382 16.558C21.382 13.267 19.035 10.608 15.843 8.68501C21.9136 6.64735 28.4834 6.64735 34.554 8.68501C31.365 10.608 29.024 13.267 29.024 16.558C29.024 22.821 35.224 24.432 37.577 24.432C39.93 24.432 46.137 22.821 46.137 16.558C46.137 13.267 43.837 10.608 40.637 8.68501C43.6423 7.69281 46.7843 7.17723 49.949 7.15701V28.421L0.450989 28.42ZM6.78299 16.557C6.78299 14.015 9.13599 11.625 12.826 9.85701C16.556 11.577 18.866 14.011 18.866 16.557C18.866 20.87 14.453 22.077 12.826 22.077C11.199 22.077 6.78299 20.87 6.78299 16.557ZM37.577 9.85701C41.264 11.621 43.614 14.011 43.614 16.557C43.614 20.87 39.214 22.077 37.577 22.077C35.94 22.077 31.534 20.87 31.534 16.557C31.534 14.015 33.848 11.581 37.577 9.85701Z" fill="#FFBE00"/>
</g>
<defs>
<clipPath id="clip0">
<rect width="49.501" height="28.001" fill="white" transform="translate(0.450989 0.420013)"/>
</clipPath>
</defs>
</svg>
